#!OML:ASF I:\Actors\actors\Patient Classification 1\Patient 1\Session 1\Subject1.ASF
:FULLY-SPECIFIED
:DEGREES
1985
root 0.94493 17.649 8.61899 14.7695 31.5503 -12.0173
lowerback 8.4069 6.79439 4.69084
upperback -5.33498 9.49186 -3.26871
thorax -9.07375 4.22299 -7.54872
lowerneck -12.5012 -13.8032 -12.0778
upperneck 11.9301 -20.9054 24.3143
head 9.99724 -8.62831 7.2494
rclavicle -5.08889e-014 1.98785e-014
rhumerus 38.4326 33.8296 6.86624
rradius 68.973
rwrist 40.5408
rhand 25.0136 -22.3078
rfingers 7.12502
rthumb 49.1737 1396.05
lclavicle -5.08889e-014 1.98785e-014
lhumerus -38.799 -68.9135 88.4992
lradius 109.281
lwrist 19.5398
lhand -28.3144 -33.8629
lfingers 7.12502
lthumb -1.68954 -3.88979
rfemur -6.8622 19.2288 26.4677
rtibia 0.174271
rfoot -36.8682 -45.6294
rtoes 30.6978
lfemur -23.3115 -42.6689 8.52092
ltibia -3.05853
lfoot 2.00781 29.9033
ltoes -19.9635
1986
root 0.941568 17.6502 8.61769 14.6582 31.3569 -12.0217
lowerback 8.3955 6.78213 4.55812
upperback -5.34142 9.46414 -3.19165
thorax -9.1119 4.21768 -7.3911
lowerneck -12.3991 -13.8923 -12.0494
upperneck 11.9971 -21.0542 24.2691
head 10.0209 -8.70258 7.20345
rclavicle -5.60573e-014 -3.26007e-014
rhumerus 37.5367 33.5041 4.90095
rradius 67.6376
rwrist 40.591
rhand 25.0014 -22.9814
rfingers 7.12502
rthumb 49.1624 1395.37
lclavicle -5.60573e-014 -3.26007e-014
lhumerus -38.8085 -69.0375 88.496
lradius 109.266
lwrist 19.5165
lhand -28.4343 -33.9259
lfingers 7.12502
lthumb -1.80536 -3.95375
rfemur -6.81658 19.0218 26.4856
rtibia 0.26732
rfoot -36.3639 -45.4517
rtoes 30.3656
lfemur -23.0771 -42.6788 8.34571
ltibia -2.99875
lfoot 2.01388 29.9718
ltoes -20.1683
1987
root 0.940171 17.6495 8.61395 14.6146 31.1972 -12.0023
lowerback 8.32449 6.74629 4.46485
upperback -5.34999 9.40766 -3.11675
thorax -9.115 4.19836 -7.24445
lowerneck -12.2598 -13.9829 -12.1004
upperneck 11.9933 -21.1886 24.2724
head 10.0266 -8.77816 7.1906
rclavicle 4.81059e-014 1.35174e-014
rhumerus 36.7235 33.098 2.77838
rradius 66.1792
rwrist 41.3372
rhand 24.8718 -23.6528
rfingers 7.12502
rthumb 49.0435 1394.64
lclavicle 4.81059e-014 1.35174e-014
lhumerus -38.8314 -69.0797 88.4956
lradius 109.262
lwrist 19.5988
lhand -28.3862 -33.6603
lfingers 7.12502
lthumb -1.75886 -3.68778
rfemur -6.84034 18.8201 26.4556
rtibia 0.359707
rfoot -35.9025 -45.3031
rtoes 30.0583
lfemur -22.973 -42.6966 8.22552
ltibia -2.90918
lfoot 1.95743 30.0623
ltoes -20.0084
1988
root 0.939747 17.6497 8.60926 14.5636 31.0565 -11.9898
lowerback 8.24169 6.67862 4.33268
upperback -5.34035 9.30854 -2.96838
thorax -9.11493 4.16345 -6.9902
lowerneck -12.1995 -14.0318 -12.1726
upperneck 12.0756 -21.2498 24.1697
head 10.048 -8.8182 7.15643
rclavicle -1.41137e-014 3.97569e-015
rhumerus 36.1721 32.7381 0.843628
rradius 64.8779
rwrist 41.0485
rhand 25.2361 -25.6845
rfingers 7.12502
rthumb 49.3778 1392.77
lclavicle -1.41137e-014 3.97569e-015
lhumerus -38.9847 -68.9448 88.6528
lradius 109.275
lwrist 19.7417
lhand -27.9552 -32.7737
lfingers 7.12502
lthumb -1.3426 -2.79813
rfemur -6.84239 18.7022 26.4336
rtibia 0.431908
rfoot -35.5626 -45.2168
rtoes 29.6681
lfemur -22.825 -42.637 8.07038
ltibia -2.86911
lfoot 1.79467 30.1071
ltoes -19.6146
1989
root 0.9393 17.651 8.60439 14.5128 30.8673 -11.9571
lowerback 8.19502 6.63751 4.14551
upperback -5.33126 9.23936 -2.82416
thorax -9.13936 4.14493 -6.7204
lowerneck -12.1752 -14.0825 -12.214
upperneck 12.1943 -21.3233 24.0612
head 10.0871 -8.8574 7.11179
rclavicle -1.3736e-013 7.95139e-016
rhumerus 35.5507 32.3363 -1.15532
rradius 63.6292
rwrist 40.1688
rhand 25.1836 -28.0685
rfingers 7.12502
rthumb 49.3296 1390.36
lclavicle -1.3736e-013 7.95139e-016
lhumerus -39.2116 -68.8979 88.8797
lradius 109.272
lwrist 19.8026
lhand -27.6438 -32.5409
lfingers 7.12502
lthumb -1.04187 -2.56371
rfemur -6.82963 18.5949 26.3873
rtibia 0.501163
rfoot -35.2091 -45.1074
rtoes 29.3149
lfemur -22.5814 -42.5457 7.8519
ltibia -2.92077
lfoot 1.75564 30.1447
ltoes -19.536
1990
root 0.939601 17.6516 8.59761 14.5136 30.6768 -11.8882
lowerback 8.1645 6.64493 3.97811
upperback -5.35845 9.23434 -2.74992
thorax -9.18988 4.15249 -6.5497
lowerneck -11.9439 -14.1743 -12.3162
upperneck 12.1255 -21.4682 24.1883
head 10.0809 -8.94121 7.15335
rclavicle 4.1546e-014 5.80451e-014
rhumerus 34.5625 31.7823 -3.4592
rradius 62.33
rwrist 39.5942
rhand 24.2553 -29.5174
rfingers 7.12502
rthumb 48.4765 1388.5
lclavicle 4.1546e-014 5.80451e-014
lhumerus -39.4242 -69.1119 89.0801
lradius 109.256
lwrist 19.8046
lhand -28.0533 -33.2236
lfingers 7.12502
lthumb -1.43743 -3.24873
rfemur -6.86262 18.4442 26.2827
rtibia 0.561905
rfoot -34.8091 -44.9934
rtoes 29.0326
lfemur -22.4443 -42.4883 7.66845
ltibia -2.92816
lfoot 1.75517 30.2219
ltoes -19.432
1991
root 0.940285 17.6509 8.59115 14.5276 30.4929 -11.8214
lowerback 8.10216 6.64055 3.81109
upperback -5.38626 9.21337 -2.66745
thorax -9.22573 4.15368 -6.36392
lowerneck -11.7692 -14.261 -12.3691
upperneck 12.1242 -21.6079 24.2324
head 10.0891 -9.01811 7.1569
rclavicle -3.12092e-014 -1.74931e-014
rhumerus 33.5196 31.1004 -5.8906
rradius 61.1391
rwrist 39.2982
rhand 23.306 -30.6749
rfingers 7.12502
rthumb 47.6015 1386.93
lclavicle -3.12092e-014 -1.74931e-014
lhumerus -39.5689 -69.3181 89.1909
lradius 109.212
lwrist 19.751
lhand -28.5098 -33.717
lfingers 7.12502
lthumb -1.87826 -3.74549
rfemur -6.8976 18.3483 26.1742
rtibia 0.603752
rfoot -34.4851 -44.9042
rtoes 28.8096
lfemur -22.3622 -42.4927 7.53282
ltibia -2.90009
lfoot 1.73479 30.3737
ltoes -19.2464
1992
root 0.94104 17.6493 8.58519 14.5316 30.2369 -11.783
lowerback 8.02784 6.60846 3.6168
upperback -5.40401 9.15507 -2.53827
thorax -9.25963 4.14032 -6.10694
lowerneck -11.8301 -14.3231 -12.2707
upperneck 12.34 -21.709 23.9913
head 10.1457 -9.06019 7.03402
rclavicle 3.26007e-014 2.38542e-014
rhumerus 32.6795 30.3322 -8.37776
rradius 60.035
rwrist 39.1851
rhand 22.8119 -32.0688
rfingers 7.12502
rthumb 47.145 1385.33
lclavicle 3.26007e-014 2.38542e-014
lhumerus -39.7264 -69.3372 89.2398
lradius 109.186
lwrist 19.6817
lhand -28.4985 -33.6802
lfingers 7.12502
lthumb -1.86736 -3.70864
rfemur -6.9334 18.3364 26.0848
rtibia 0.648711
rfoot -34.2022 -44.7839
rtoes 28.6052
lfemur -22.2248 -42.5423 7.4155
ltibia -2.90469
lfoot 1.73974 30.6364
ltoes -19.1152
1993
root 0.94347 17.6481 8.57803 14.5275 29.9409 -11.7855
lowerback 7.97762 6.57259 3.43711
upperback -5.43254 9.09716 -2.38401
thorax -9.32095 4.12559 -5.83642
lowerneck -11.8206 -14.3683 -12.1723
upperneck 12.4492 -21.7721 23.7813
head 10.1489 -9.09505 6.93207
rclavicle 1.49486e-013 1.98785e-014
rhumerus 32.0013 29.4795 -10.853
rradius 58.8847
rwrist 39.0071
rhand 22.497 -33.2884
rfingers 7.12502
rthumb 46.8537 1383.98
lclavicle 1.49486e-013 1.98785e-014
lhumerus -39.9856 -69.2693 89.3556
lradius 109.211
lwrist 19.7001
lhand -28.3241 -33.4667
lfingers 7.12502
lthumb -1.69891 -3.49373
rfemur -6.9846 18.3421 26.0207
rtibia 0.694546
rfoot -33.8906 -44.6197
rtoes 28.4305
lfemur -22.1065 -42.7042 7.38281
ltibia -2.92039
lfoot 1.65425 31.0733
ltoes -18.727
1994
root 0.948426 17.6471 8.57008 14.4943 29.6701 -11.8169
lowerback 7.97131 6.55553 3.33406
upperback -5.468 9.07572 -2.23313
thorax -9.3993 4.12268 -5.62251
lowerneck -11.6508 -14.413 -12.2188
upperneck 12.4048 -21.8278 23.7631
head 10.1148 -9.14068 6.92905
rclavicle 3.69739e-014 -1.66979e-014
rhumerus 31.2518 28.557 -13.3014
rradius 57.7459
rwrist 38.7178
rhand 21.9702 -34.0398
rfingers 7.12502
rthumb 46.3659 1383.02
lclavicle 3.69739e-014 -1.66979e-014
lhumerus -40.3194 -69.2516 89.6018
lradius 109.237
lwrist 19.7944
lhand -28.2448 -33.3873
lfingers 7.12502
lthumb -1.62235 -3.41372
rfemur -7.00909 18.2683 25.9847
rtibia 0.720428
rfoot -33.4929 -44.4357
rtoes 28.1804
lfemur -22.006 -42.9955 7.41403
ltibia -2.94909
lfoot 1.54023 31.6209
ltoes -18.2132
1995
root 0.952768 17.6469 8.56172 14.4613 29.4074 -11.8138
lowerback 8.01395 6.56419 3.21759
upperback -5.51059 9.08776 -2.09778
thorax -9.51036 4.1347 -5.43022
lowerneck -11.5417 -14.4732 -12.151
upperneck 12.437 -21.8989 23.5703
head 10.08 -9.19156 6.84063
rclavicle 9.24349e-014 3.02153e-014
rhumerus 30.295 27.543 -15.8595
rradius 56.7563
rwrist 38.0512
rhand 21.1781 -34.4748
rfingers 7.12502
rthumb 45.631 1382.28
lclavicle 9.24349e-014 3.02153e-014
lhumerus -40.7374 -69.2929 89.9839
lradius 109.218
lwrist 19.8256
lhand -28.2767 -33.4347
lfingers 7.12502
lthumb -1.65311 -3.4614
rfemur -7.00225 18.2705 25.9207
rtibia 0.72654
rfoot -33.2244 -44.31
rtoes 27.9835
lfemur -21.8754 -43.2563 7.37901
ltibia -2.98612
lfoot 1.57098 32.0597
ltoes -18.0669
